<mxfile host="Electron" modified="2023-05-02T09:13:58.549Z" agent="Mozilla/5.0 (Windows NT 10.0; Win64; x64) AppleWebKit/537.36 (KHTML, like Gecko) draw.io/21.2.1 Chrome/112.0.5615.87 Electron/24.1.2 Safari/537.36" etag="CIXWmOksbmaj1VXtrHq5" version="21.2.1" type="device">
  <diagram name="Страница 1" id="34Of41y-73AYm4Dbezmq">
    <mxGraphModel dx="794" dy="559" grid="1" gridSize="12" guides="1" tooltips="1" connect="1" arrows="1" fold="1" page="1" pageScale="1" pageWidth="583" pageHeight="413" background="#ffffff" math="0" shadow="0">
      <root>
        <mxCell id="0" />
        <mxCell id="1" parent="0" />
        <mxCell id="KdFzYV4tvMzQHfm_z4CG-7" style="edgeStyle=orthogonalEdgeStyle;rounded=0;orthogonalLoop=1;jettySize=auto;html=1;exitX=0.55;exitY=0.95;exitDx=0;exitDy=0;exitPerimeter=0;entryX=0.5;entryY=0;entryDx=0;entryDy=0;entryPerimeter=0;" edge="1" parent="1" source="KdFzYV4tvMzQHfm_z4CG-1" target="KdFzYV4tvMzQHfm_z4CG-3">
          <mxGeometry relative="1" as="geometry" />
        </mxCell>
        <mxCell id="KdFzYV4tvMzQHfm_z4CG-1" value="UAV mapping&lt;br&gt;23.05.2021" style="ellipse;shape=cloud;whiteSpace=wrap;html=1;" vertex="1" parent="1">
          <mxGeometry width="120" height="80" as="geometry" />
        </mxCell>
        <mxCell id="KdFzYV4tvMzQHfm_z4CG-8" style="edgeStyle=orthogonalEdgeStyle;rounded=0;orthogonalLoop=1;jettySize=auto;html=1;exitX=0.55;exitY=0.95;exitDx=0;exitDy=0;exitPerimeter=0;entryX=0.5;entryY=0;entryDx=0;entryDy=0;entryPerimeter=0;" edge="1" parent="1" source="KdFzYV4tvMzQHfm_z4CG-2" target="KdFzYV4tvMzQHfm_z4CG-4">
          <mxGeometry relative="1" as="geometry" />
        </mxCell>
        <mxCell id="KdFzYV4tvMzQHfm_z4CG-2" value="UAV mapping&lt;br&gt;&amp;nbsp;26.07.2022" style="ellipse;shape=cloud;whiteSpace=wrap;html=1;" vertex="1" parent="1">
          <mxGeometry x="144" width="120" height="80" as="geometry" />
        </mxCell>
        <mxCell id="KdFzYV4tvMzQHfm_z4CG-13" style="edgeStyle=orthogonalEdgeStyle;rounded=0;orthogonalLoop=1;jettySize=auto;html=1;exitX=0.5;exitY=1;exitDx=0;exitDy=0;exitPerimeter=0;entryX=0;entryY=0.5;entryDx=0;entryDy=0;" edge="1" parent="1" source="KdFzYV4tvMzQHfm_z4CG-3" target="KdFzYV4tvMzQHfm_z4CG-5">
          <mxGeometry relative="1" as="geometry" />
        </mxCell>
        <mxCell id="KdFzYV4tvMzQHfm_z4CG-3" value="DEM&lt;br style=&quot;border-color: var(--border-color);&quot;&gt;6.15 × 6.15 mm" style="shape=cylinder3;whiteSpace=wrap;html=1;boundedLbl=1;backgroundOutline=1;size=15;rounded=0;" vertex="1" parent="1">
          <mxGeometry x="12" y="108" width="96" height="72" as="geometry" />
        </mxCell>
        <mxCell id="KdFzYV4tvMzQHfm_z4CG-11" style="edgeStyle=orthogonalEdgeStyle;rounded=0;orthogonalLoop=1;jettySize=auto;html=1;exitX=0.5;exitY=1;exitDx=0;exitDy=0;exitPerimeter=0;entryX=1;entryY=0.5;entryDx=0;entryDy=0;" edge="1" parent="1" source="KdFzYV4tvMzQHfm_z4CG-4" target="KdFzYV4tvMzQHfm_z4CG-5">
          <mxGeometry relative="1" as="geometry" />
        </mxCell>
        <mxCell id="KdFzYV4tvMzQHfm_z4CG-22" style="edgeStyle=orthogonalEdgeStyle;rounded=0;orthogonalLoop=1;jettySize=auto;html=1;exitX=1;exitY=0.5;exitDx=0;exitDy=0;exitPerimeter=0;entryX=0;entryY=0.5;entryDx=0;entryDy=0;" edge="1" parent="1" source="KdFzYV4tvMzQHfm_z4CG-4" target="KdFzYV4tvMzQHfm_z4CG-15">
          <mxGeometry relative="1" as="geometry" />
        </mxCell>
        <mxCell id="KdFzYV4tvMzQHfm_z4CG-4" value="DEM&lt;br style=&quot;border-color: var(--border-color);&quot;&gt;18 × 18 mm" style="shape=cylinder3;whiteSpace=wrap;html=1;boundedLbl=1;backgroundOutline=1;size=15;rounded=0;" vertex="1" parent="1">
          <mxGeometry x="156" y="108" width="96" height="74" as="geometry" />
        </mxCell>
        <mxCell id="KdFzYV4tvMzQHfm_z4CG-14" style="edgeStyle=orthogonalEdgeStyle;rounded=0;orthogonalLoop=1;jettySize=auto;html=1;exitX=0.5;exitY=1;exitDx=0;exitDy=0;entryX=0.501;entryY=0;entryDx=0;entryDy=0;entryPerimeter=0;" edge="1" parent="1" source="KdFzYV4tvMzQHfm_z4CG-5" target="KdFzYV4tvMzQHfm_z4CG-6">
          <mxGeometry relative="1" as="geometry" />
        </mxCell>
        <mxCell id="KdFzYV4tvMzQHfm_z4CG-5" value="Coregistration&lt;br&gt;(Nuth &amp;amp; Kääb, 2011)" style="rounded=0;whiteSpace=wrap;html=1;" vertex="1" parent="1">
          <mxGeometry x="84" y="192" width="96" height="60" as="geometry" />
        </mxCell>
        <mxCell id="KdFzYV4tvMzQHfm_z4CG-40" style="edgeStyle=orthogonalEdgeStyle;rounded=0;orthogonalLoop=1;jettySize=auto;html=1;exitX=0;exitY=0;exitDx=120;exitDy=50;exitPerimeter=0;" edge="1" parent="1" source="KdFzYV4tvMzQHfm_z4CG-6" target="KdFzYV4tvMzQHfm_z4CG-39">
          <mxGeometry relative="1" as="geometry" />
        </mxCell>
        <mxCell id="KdFzYV4tvMzQHfm_z4CG-6" value="Dem of Difference&lt;br&gt;(DoD)" style="shape=cube;whiteSpace=wrap;html=1;boundedLbl=1;backgroundOutline=1;darkOpacity=0.05;darkOpacity2=0.1;" vertex="1" parent="1">
          <mxGeometry x="72" y="276" width="120" height="80" as="geometry" />
        </mxCell>
        <mxCell id="KdFzYV4tvMzQHfm_z4CG-23" style="edgeStyle=orthogonalEdgeStyle;rounded=0;orthogonalLoop=1;jettySize=auto;html=1;exitX=0.5;exitY=1;exitDx=0;exitDy=0;entryX=0.5;entryY=0;entryDx=0;entryDy=0;" edge="1" parent="1" source="KdFzYV4tvMzQHfm_z4CG-15" target="KdFzYV4tvMzQHfm_z4CG-16">
          <mxGeometry relative="1" as="geometry" />
        </mxCell>
        <mxCell id="KdFzYV4tvMzQHfm_z4CG-15" value="Breach depressions&lt;br&gt;(Lindsay, 2012)" style="rounded=0;whiteSpace=wrap;html=1;" vertex="1" parent="1">
          <mxGeometry x="292" y="15" width="116.5" height="50" as="geometry" />
        </mxCell>
        <mxCell id="KdFzYV4tvMzQHfm_z4CG-24" style="edgeStyle=orthogonalEdgeStyle;rounded=0;orthogonalLoop=1;jettySize=auto;html=1;exitX=0.5;exitY=1;exitDx=0;exitDy=0;entryX=0.5;entryY=0;entryDx=0;entryDy=0;" edge="1" parent="1" source="KdFzYV4tvMzQHfm_z4CG-16" target="KdFzYV4tvMzQHfm_z4CG-17">
          <mxGeometry relative="1" as="geometry" />
        </mxCell>
        <mxCell id="KdFzYV4tvMzQHfm_z4CG-16" value="D8 Flow Pointer&lt;br&gt;(Lindsay, 2012)" style="rounded=0;whiteSpace=wrap;html=1;" vertex="1" parent="1">
          <mxGeometry x="292" y="84" width="116.5" height="50" as="geometry" />
        </mxCell>
        <mxCell id="KdFzYV4tvMzQHfm_z4CG-27" style="edgeStyle=orthogonalEdgeStyle;rounded=0;orthogonalLoop=1;jettySize=auto;html=1;exitX=1;exitY=0.5;exitDx=0;exitDy=0;entryX=0;entryY=0.5;entryDx=0;entryDy=0;" edge="1" parent="1" source="KdFzYV4tvMzQHfm_z4CG-17" target="KdFzYV4tvMzQHfm_z4CG-18">
          <mxGeometry relative="1" as="geometry" />
        </mxCell>
        <mxCell id="KdFzYV4tvMzQHfm_z4CG-17" value="D8 Flow Accumulation&lt;br&gt;(Lindsay, 2012)" style="rounded=0;whiteSpace=wrap;html=1;" vertex="1" parent="1">
          <mxGeometry x="292" y="156.5" width="116.5" height="50" as="geometry" />
        </mxCell>
        <mxCell id="KdFzYV4tvMzQHfm_z4CG-26" style="edgeStyle=orthogonalEdgeStyle;rounded=0;orthogonalLoop=1;jettySize=auto;html=1;exitX=0.5;exitY=1;exitDx=0;exitDy=0;entryX=0.5;entryY=0;entryDx=0;entryDy=0;" edge="1" parent="1" source="KdFzYV4tvMzQHfm_z4CG-18" target="KdFzYV4tvMzQHfm_z4CG-19">
          <mxGeometry relative="1" as="geometry" />
        </mxCell>
        <mxCell id="KdFzYV4tvMzQHfm_z4CG-18" value="Extract streams&lt;br&gt;(Lindsay, 2012)" style="rounded=0;whiteSpace=wrap;html=1;" vertex="1" parent="1">
          <mxGeometry x="456" y="15" width="116.5" height="50" as="geometry" />
        </mxCell>
        <mxCell id="KdFzYV4tvMzQHfm_z4CG-32" style="edgeStyle=orthogonalEdgeStyle;rounded=0;orthogonalLoop=1;jettySize=auto;html=1;exitX=0.5;exitY=1;exitDx=0;exitDy=0;entryX=0.5;entryY=0;entryDx=0;entryDy=0;" edge="1" parent="1" source="KdFzYV4tvMzQHfm_z4CG-19" target="KdFzYV4tvMzQHfm_z4CG-31">
          <mxGeometry relative="1" as="geometry" />
        </mxCell>
        <mxCell id="KdFzYV4tvMzQHfm_z4CG-19" value="Strahler Order&lt;br&gt;(Lindsay, 2012)" style="rounded=0;whiteSpace=wrap;html=1;" vertex="1" parent="1">
          <mxGeometry x="456" y="84" width="116.5" height="50" as="geometry" />
        </mxCell>
        <mxCell id="KdFzYV4tvMzQHfm_z4CG-36" style="edgeStyle=orthogonalEdgeStyle;rounded=0;orthogonalLoop=1;jettySize=auto;html=1;exitX=0.5;exitY=1;exitDx=0;exitDy=0;entryX=0.527;entryY=-0.019;entryDx=0;entryDy=0;entryPerimeter=0;" edge="1" parent="1" source="KdFzYV4tvMzQHfm_z4CG-31" target="KdFzYV4tvMzQHfm_z4CG-35">
          <mxGeometry relative="1" as="geometry" />
        </mxCell>
        <mxCell id="KdFzYV4tvMzQHfm_z4CG-31" value="Filter &lt;br&gt;strahler &lt;br&gt;order &amp;gt;2" style="shape=parallelogram;perimeter=parallelogramPerimeter;whiteSpace=wrap;html=1;fixedSize=1;" vertex="1" parent="1">
          <mxGeometry x="456" y="156.5" width="116.5" height="52.5" as="geometry" />
        </mxCell>
        <mxCell id="KdFzYV4tvMzQHfm_z4CG-41" style="edgeStyle=orthogonalEdgeStyle;rounded=0;orthogonalLoop=1;jettySize=auto;html=1;exitX=0.5;exitY=1;exitDx=0;exitDy=0;entryX=0.5;entryY=0;entryDx=0;entryDy=0;" edge="1" parent="1" source="KdFzYV4tvMzQHfm_z4CG-33" target="KdFzYV4tvMzQHfm_z4CG-39">
          <mxGeometry relative="1" as="geometry" />
        </mxCell>
        <mxCell id="KdFzYV4tvMzQHfm_z4CG-33" value="0.5 m buffer area&lt;br&gt;around streams" style="rounded=0;whiteSpace=wrap;html=1;" vertex="1" parent="1">
          <mxGeometry x="292" y="226" width="116.5" height="50" as="geometry" />
        </mxCell>
        <mxCell id="KdFzYV4tvMzQHfm_z4CG-38" style="edgeStyle=orthogonalEdgeStyle;rounded=0;orthogonalLoop=1;jettySize=auto;html=1;exitX=0;exitY=0;exitDx=0;exitDy=30;exitPerimeter=0;entryX=1;entryY=0.5;entryDx=0;entryDy=0;" edge="1" parent="1" source="KdFzYV4tvMzQHfm_z4CG-35" target="KdFzYV4tvMzQHfm_z4CG-33">
          <mxGeometry relative="1" as="geometry" />
        </mxCell>
        <mxCell id="KdFzYV4tvMzQHfm_z4CG-35" value="Stream network" style="shape=cube;whiteSpace=wrap;html=1;boundedLbl=1;backgroundOutline=1;darkOpacity=0.05;darkOpacity2=0.1;" vertex="1" parent="1">
          <mxGeometry x="452.5" y="240" width="120" height="80" as="geometry" />
        </mxCell>
        <mxCell id="KdFzYV4tvMzQHfm_z4CG-39" value="Mean vertical gully erosion rate [m/yr]" style="shape=hexagon;perimeter=hexagonPerimeter2;whiteSpace=wrap;html=1;fixedSize=1;" vertex="1" parent="1">
          <mxGeometry x="288.5" y="312" width="120" height="80" as="geometry" />
        </mxCell>
      </root>
    </mxGraphModel>
  </diagram>
</mxfile>
